<svg xmlns="http://www.w3.org/2000/svg" width="1280" height="769" viewBox="0 0 1280 769" role="img" aria-labelledby="title desc">
  <title id="title">Sample illustrative AI-visibility findings table</title>
  <desc id="desc">A layout preview showing customer-facing outcomes documented in an audit. No real client, business, or result is represented.</desc>
  <defs>
    <pattern id="grid" width="40" height="40" patternUnits="userSpaceOnUse">
      <path d="M40 0H0V40" fill="none" stroke="#8A93A0" stroke-opacity=".09" stroke-width="1"/>
    </pattern>
  </defs>
  <rect width="1280" height="769" fill="#F7F8FA"/>
  <rect width="1280" height="769" fill="url(#grid)"/>
  <rect width="1280" height="116" fill="#14161A"/>
  <g transform="translate(48 28) scale(.42)">
    <path fill="#F7F8FA" d="M16 80V32h17v8c6-7 14-11 24-11 19 0 29 12 29 31v20H69V62c0-12-5-17-15-17-13 0-21 8-21 22v13H16Z"/>
    <circle cx="102" cy="72" r="8" fill="#22D3EE"/>
  </g>
  <text x="108" y="66" fill="#F7F8FA" font-family="Segoe UI, Arial, sans-serif" font-size="24" font-weight="700">Nano Solutions</text>
  <rect x="906" y="30" width="326" height="54" rx="27" fill="#22D3EE"/>
  <text x="946" y="64" fill="#14161A" font-family="Segoe UI, Arial, sans-serif" font-size="18" font-weight="800" letter-spacing="1.8">SAMPLE / ILLUSTRATIVE</text>
  <text x="48" y="181" fill="#22D3EE" font-family="Segoe UI, Arial, sans-serif" font-size="17" font-weight="750" letter-spacing="2.7">DELIVERABLE PREVIEW</text>
  <text x="48" y="236" fill="#14161A" font-family="Segoe UI, Arial, sans-serif" font-size="46" font-weight="750" letter-spacing="-1.6">What the audit clarifies</text>
  <text x="48" y="272" fill="#8A93A0" font-family="Segoe UI, Arial, sans-serif" font-size="20">A clear outcome view—not a mystery composite score.</text>
  <g transform="translate(48 315)" font-family="Segoe UI, Arial, sans-serif">
    <rect width="1184" height="354" rx="20" fill="#22272F"/>
    <rect width="1184" height="60" rx="20" fill="#14161A"/>
    <path d="M0 60h1184M218 0v354M520 0v354M854 0v354M0 133h1184M0 206h1184M0 279h1184" stroke="#8A93A0" stroke-opacity=".25"/>
    <g fill="#8A93A0" font-size="14" font-weight="750" letter-spacing="1.6">
      <text x="24" y="37">AREA</text>
      <text x="242" y="37">FINDING</text>
      <text x="544" y="37">CUSTOMER CONTEXT</text>
      <text x="878" y="37">NEXT DECISION</text>
    </g>
    <g font-size="18">
      <text x="24" y="105" fill="#F7F8FA" font-weight="650">Visibility</text>
      <text x="242" y="105" fill="#F7F8FA">Presence varies</text>
      <text x="544" y="105" fill="#F7F8FA">Buyer paths differ</text>
      <text x="878" y="105" fill="#F7F8FA">Review first</text>
      <text x="24" y="178" fill="#F7F8FA" font-weight="650">Competition</text>
      <text x="242" y="178" fill="#F7F8FA">Alternatives surface</text>
      <text x="544" y="178" fill="#F7F8FA">The set can change</text>
      <text x="878" y="178" fill="#F7F8FA">Watch closely</text>
      <text x="24" y="251" fill="#F7F8FA" font-weight="650">Credibility</text>
      <text x="242" y="251" fill="#F7F8FA">Story is mixed</text>
      <text x="544" y="251" fill="#F7F8FA">Confidence breaks</text>
      <text x="878" y="251" fill="#F7F8FA">Strengthen proof</text>
      <text x="24" y="324" fill="#F7F8FA" font-weight="650">Priorities</text>
      <text x="242" y="324" fill="#F7F8FA">Gaps are ordered</text>
      <text x="544" y="324" fill="#F7F8FA">Impact comes first</text>
      <text x="878" y="324" fill="#F7F8FA">Sequence actions</text>
    </g>
    <g fill="#22D3EE">
      <circle cx="198" cy="98" r="4"/><circle cx="198" cy="171" r="4"/><circle cx="198" cy="244" r="4"/><circle cx="198" cy="317" r="4"/>
    </g>
  </g>
  <text x="48" y="722" fill="#14161A" font-family="Segoe UI, Arial, sans-serif" font-size="18" font-weight="750">SAMPLE / ILLUSTRATIVE</text>
  <text x="281" y="722" fill="#8A93A0" font-family="Segoe UI, Arial, sans-serif" font-size="18">Layout preview only · exact scope varies · no real client, business, or result.</text>
</svg>
