<svg xmlns="http://www.w3.org/2000/svg" width="1280" height="769" viewBox="0 0 1280 769" role="img" aria-labelledby="title desc">
  <title id="title">Nano audit process</title>
  <desc id="desc">Free check, full audit, and optional done-for-you fixes.</desc>
  <defs>
    <pattern id="grid" width="38" height="38" patternUnits="userSpaceOnUse">
      <path d="M38 0H0V38" fill="none" stroke="#8A93A0" stroke-opacity=".07" stroke-width="1"/>
    </pattern>
  </defs>
  <rect width="1280" height="769" fill="#14161A"/>
  <rect width="1280" height="769" fill="url(#grid)"/>
  <g fill="none" stroke="#8A93A0" stroke-opacity=".16" stroke-width="2">
    <circle cx="1110" cy="80" r="250"/>
    <circle cx="1110" cy="80" r="180"/>
    <circle cx="1110" cy="80" r="110"/>
  </g>
  <path d="M1110-170a250 250 0 0 1 244 197" fill="none" stroke="#22D3EE" stroke-width="5" stroke-linecap="round"/>
  <g transform="translate(56 42) scale(.44)">
    <path fill="#F7F8FA" d="M16 80V32h17v8c6-7 14-11 24-11 19 0 29 12 29 31v20H69V62c0-12-5-17-15-17-13 0-21 8-21 22v13H16Z"/>
    <circle cx="102" cy="72" r="8" fill="#22D3EE"/>
  </g>
  <text x="116" y="75" fill="#F7F8FA" font-family="Segoe UI, Arial, sans-serif" font-size="24" font-weight="700">Nano</text>
  <text x="56" y="158" fill="#22D3EE" font-family="Segoe UI, Arial, sans-serif" font-size="17" font-weight="750" letter-spacing="2.8">CLIENT-FRIENDLY PROCESS</text>
  <text x="56" y="222" fill="#F7F8FA" font-family="Segoe UI, Arial, sans-serif" font-size="48" font-weight="750" letter-spacing="-1.7">From visibility check to action plan.</text>
  <text x="56" y="258" fill="#8A93A0" font-family="Segoe UI, Arial, sans-serif" font-size="20">Start small. Keep the findings. Choose whether implementation continues.</text>
  <g font-family="Segoe UI, Arial, sans-serif">
    <g transform="translate(56 323)">
      <rect width="348" height="306" rx="24" fill="#22272F" stroke="#8A93A0" stroke-opacity=".25"/>
      <text x="28" y="54" fill="#22D3EE" font-size="17" font-weight="800" letter-spacing="2">01</text>
      <text x="28" y="103" fill="#F7F8FA" font-size="31" font-weight="700">Free check</text>
      <rect x="28" y="128" width="66" height="4" rx="2" fill="#22D3EE"/>
      <text x="28" y="177" fill="#8A93A0" font-size="20">Current visibility across</text>
      <text x="28" y="207" fill="#8A93A0" font-size="20">major AI assistants.</text>
      <text x="28" y="264" fill="#F7F8FA" font-size="16" font-weight="650" letter-spacing="1">QUICK VISIBILITY SNAPSHOT</text>
    </g>
    <text x="424" y="488" fill="#22D3EE" font-size="40" font-weight="500">→</text>
    <g transform="translate(466 323)">
      <rect width="348" height="306" rx="24" fill="#22272F" stroke="#8A93A0" stroke-opacity=".25"/>
      <text x="28" y="54" fill="#22D3EE" font-size="17" font-weight="800" letter-spacing="2">02</text>
      <text x="28" y="103" fill="#F7F8FA" font-size="31" font-weight="700">Full audit</text>
      <rect x="28" y="128" width="66" height="4" rx="2" fill="#22D3EE"/>
      <text x="28" y="177" fill="#8A93A0" font-size="20">Clear visibility findings,</text>
      <text x="28" y="207" fill="#8A93A0" font-size="20">competitor context, priorities.</text>
      <text x="28" y="264" fill="#F7F8FA" font-size="16" font-weight="650" letter-spacing="1">YOUR FINDINGS TO KEEP</text>
    </g>
    <text x="834" y="488" fill="#22D3EE" font-size="40" font-weight="500">→</text>
    <g transform="translate(876 323)">
      <rect width="348" height="306" rx="24" fill="#22272F" stroke="#8A93A0" stroke-opacity=".25"/>
      <text x="28" y="54" fill="#22D3EE" font-size="17" font-weight="800" letter-spacing="2">03</text>
      <text x="28" y="103" fill="#F7F8FA" font-size="29" font-weight="700">Done-for-you fixes</text>
      <rect x="28" y="128" width="66" height="4" rx="2" fill="#22D3EE"/>
      <text x="28" y="177" fill="#8A93A0" font-size="20">Implement agreed recommendations</text>
      <text x="28" y="207" fill="#8A93A0" font-size="20">with a follow-up review.</text>
      <text x="28" y="264" fill="#F7F8FA" font-size="16" font-weight="650" letter-spacing="1">OPTIONAL IMPLEMENTATION</text>
    </g>
  </g>
  <text x="56" y="702" fill="#8A93A0" font-family="Segoe UI, Arial, sans-serif" font-size="17" font-weight="600" letter-spacing="1.2">CLEAR FINDINGS · NO RANKING GUARANTEES · OPTIONAL IMPLEMENTATION</text>
</svg>
