<svg xmlns="http://www.w3.org/2000/svg" width="1200" height="630" viewBox="0 0 1200 630" role="img" aria-labelledby="title desc">
  <title id="title">Nano AI-visibility audit</title>
  <desc id="desc">Does AI recommend your business? See where you appear, who appears instead, and what to prioritize.</desc>
  <defs>
    <pattern id="grid" width="36" height="36" patternUnits="userSpaceOnUse">
      <path d="M36 0H0V36" fill="none" stroke="#8A93A0" stroke-opacity=".08" stroke-width="1"/>
    </pattern>
    <clipPath id="canvas"><rect width="1200" height="630" rx="0"/></clipPath>
  </defs>
  <rect width="1200" height="630" fill="#14161A"/>
  <rect width="1200" height="630" fill="url(#grid)"/>
  <g clip-path="url(#canvas)" fill="none">
    <g stroke="#8A93A0" stroke-opacity=".22" stroke-width="2">
      <circle cx="1010" cy="315" r="278"/>
      <circle cx="1010" cy="315" r="210"/>
      <circle cx="1010" cy="315" r="142"/>
      <circle cx="1010" cy="315" r="74"/>
      <path d="M708 315h492M1010 16v598" stroke-opacity=".12"/>
    </g>
    <path d="M1010 37a278 278 0 0 1 270 214" stroke="#22D3EE" stroke-width="5" stroke-linecap="round"/>
  </g>
  <circle cx="1174" cy="146" r="8" fill="#22D3EE"/>
  <g transform="translate(72 44) scale(.54)">
    <path fill="#F7F8FA" d="M16 80V32h17v8c6-7 14-11 24-11 19 0 29 12 29 31v20H69V62c0-12-5-17-15-17-13 0-21 8-21 22v13H16Z"/>
    <circle cx="102" cy="72" r="8" fill="#22D3EE"/>
  </g>
  <text x="145" y="84" fill="#F7F8FA" font-family="Segoe UI, Arial, sans-serif" font-size="27" font-weight="700" letter-spacing="-.7">Nano</text>
  <text x="72" y="184" fill="#22D3EE" font-family="Segoe UI, Arial, sans-serif" font-size="18" font-weight="700" letter-spacing="3.2">AI-VISIBILITY DIAGNOSTICS</text>
  <text x="72" y="274" fill="#F7F8FA" font-family="Segoe UI, Arial, sans-serif" font-size="66" font-weight="750" letter-spacing="-2.4">Does AI recommend</text>
  <text x="72" y="348" fill="#F7F8FA" font-family="Segoe UI, Arial, sans-serif" font-size="66" font-weight="750" letter-spacing="-2.4">your business?</text>
  <rect x="72" y="382" width="92" height="5" rx="2.5" fill="#22D3EE"/>
  <text x="72" y="428" fill="#8A93A0" font-family="Segoe UI, Arial, sans-serif" font-size="24" font-weight="400">See where you appear, who appears instead,</text>
  <text x="72" y="462" fill="#8A93A0" font-family="Segoe UI, Arial, sans-serif" font-size="24" font-weight="400">and what to prioritize next.</text>
  <g font-family="Segoe UI, Arial, sans-serif" font-size="17" font-weight="650" fill="#F7F8FA">
    <rect x="72" y="513" width="132" height="48" rx="24" fill="#22272F" stroke="#8A93A0" stroke-opacity=".35"/>
    <text x="101" y="544">ChatGPT</text>
    <rect x="216" y="513" width="116" height="48" rx="24" fill="#22272F" stroke="#8A93A0" stroke-opacity=".35"/>
    <text x="246" y="544">Gemini</text>
    <rect x="344" y="513" width="140" height="48" rx="24" fill="#22272F" stroke="#8A93A0" stroke-opacity=".35"/>
    <text x="370" y="544">Perplexity</text>
    <rect x="496" y="513" width="144" height="48" rx="24" fill="#22272F" stroke="#8A93A0" stroke-opacity=".35"/>
    <text x="524" y="544">Google AI</text>
    <rect x="652" y="513" width="210" height="48" rx="24" fill="#22272F" stroke="#8A93A0" stroke-opacity=".35"/>
    <text x="681" y="544">+ relevant surfaces</text>
  </g>
  <text x="830" y="580" fill="#8A93A0" font-family="Segoe UI, Arial, sans-serif" font-size="15" font-weight="650" letter-spacing="1.8">MEASURE / PRIORITIZE / IMPROVE</text>
</svg>
