<svg xmlns="http://www.w3.org/2000/svg" width="1200" height="630" viewBox="0 0 1200 630" role="img" aria-labelledby="title desc">
  <title id="title">Study 01: same question, different answers</title>
  <desc id="desc">The same local-business question in Gilbert, Arizona produced different top answers across AI assistants.</desc>
  <defs>
    <pattern id="grid" width="38" height="38" patternUnits="userSpaceOnUse">
      <path d="M38 0H0V38" fill="none" stroke="#8A93A0" stroke-opacity=".11" stroke-width="1"/>
    </pattern>
  </defs>
  <rect width="1200" height="630" fill="#F7F8FA"/>
  <rect width="1200" height="630" fill="url(#grid)"/>
  <g fill="none" stroke="#8A93A0" stroke-opacity=".17" stroke-width="2">
    <circle cx="1080" cy="100" r="215"/>
    <circle cx="1080" cy="100" r="158"/>
    <circle cx="1080" cy="100" r="101"/>
  </g>
  <path d="M1080-115a215 215 0 0 1 211 174" fill="none" stroke="#22D3EE" stroke-width="5" stroke-linecap="round"/>
  <g transform="translate(66 39) scale(.48)">
    <path fill="#14161A" d="M16 80V32h17v8c6-7 14-11 24-11 19 0 29 12 29 31v20H69V62c0-12-5-17-15-17-13 0-21 8-21 22v13H16Z"/>
    <circle cx="102" cy="72" r="8" fill="#22D3EE"/>
  </g>
  <text x="132" y="76" fill="#14161A" font-family="Segoe UI, Arial, sans-serif" font-size="25" font-weight="700" letter-spacing="-.6">Nano</text>
  <text x="66" y="163" fill="#22D3EE" font-family="Segoe UI, Arial, sans-serif" font-size="18" font-weight="750" letter-spacing="3">STUDY 01 · GILBERT, ARIZONA</text>
  <text x="66" y="246" fill="#14161A" font-family="Segoe UI, Arial, sans-serif" font-size="62" font-weight="750" letter-spacing="-2.2">Same question. Different answers.</text>
  <text x="66" y="292" fill="#8A93A0" font-family="Segoe UI, Arial, sans-serif" font-size="23">Same buyer question. Same city. Dated snapshot.</text>
  <g font-family="Segoe UI, Arial, sans-serif">
    <g transform="translate(66 344)">
      <rect width="500" height="96" rx="18" fill="#22272F"/>
      <circle cx="30" cy="29" r="5" fill="#22D3EE"/>
      <text x="48" y="35" fill="#8A93A0" font-size="16" font-weight="700" letter-spacing="1.5">CHATGPT</text>
      <text x="30" y="72" fill="#F7F8FA" font-size="25" font-weight="650">Auri Aesthetics</text>
    </g>
    <g transform="translate(584 344)">
      <rect width="550" height="96" rx="18" fill="#22272F"/>
      <circle cx="30" cy="29" r="5" fill="#22D3EE"/>
      <text x="48" y="35" fill="#8A93A0" font-size="16" font-weight="700" letter-spacing="1.5">PERPLEXITY</text>
      <text x="30" y="72" fill="#F7F8FA" font-size="25" font-weight="650">Cleanse Modern Day Spa</text>
    </g>
    <g transform="translate(66 458)">
      <rect width="500" height="96" rx="18" fill="#22272F"/>
      <circle cx="30" cy="29" r="5" fill="#22D3EE"/>
      <text x="48" y="35" fill="#8A93A0" font-size="16" font-weight="700" letter-spacing="1.5">GEMINI</text>
      <text x="30" y="72" fill="#F7F8FA" font-size="25" font-weight="650">SkinWay Medspa</text>
    </g>
    <g transform="translate(584 458)">
      <rect width="550" height="96" rx="18" fill="#22272F"/>
      <circle cx="30" cy="29" r="5" fill="#22D3EE"/>
      <text x="48" y="35" fill="#8A93A0" font-size="16" font-weight="700" letter-spacing="1.5">GOOGLE AI</text>
      <text x="30" y="72" fill="#F7F8FA" font-size="25" font-weight="650">DrSkin</text>
    </g>
  </g>
  <text x="66" y="599" fill="#8A93A0" font-family="Segoe UI, Arial, sans-serif" font-size="15" font-weight="600" letter-spacing="1.2">AI ANSWERS CHANGE · THE DIAGNOSTIC IS A DATED SNAPSHOT</text>
</svg>
